<?xml version="1.0" encoding="UTF-8" standalone="no"?>
<svg width="226px" height="61px" viewBox="0 0 226 61" version="1.1" xmlns="http://www.w3.org/2000/svg" xmlns:xlink="http://www.w3.org/1999/xlink">
    <!-- Generator: Sketch 43.2 (39069) - http://www.bohemiancoding.com/sketch -->
    <title>VanHack-logo-free</title>
    <desc>Created with Sketch.</desc>
    <defs>
        <rect id="path-1" x="0" y="0" width="79" height="29"></rect>
    </defs>
    <g id="Page-1" stroke="none" stroke-width="1" fill="none" fill-rule="evenodd">
        <g id="Icons-and-logo" transform="translate(-60.000000, -555.000000)">
            <g id="VanHack-logo-free" transform="translate(60.000000, 555.000000)">
                <g id="account-type" transform="translate(147.000000, 39.000000)">
                    <mask id="mask-2" fill="white">
                        <use xlink:href="#path-1"></use>
                    </mask>
                    <g id="Mask"></g>
                    <path d="M46.7,16.6138355 C46.7500002,16.6138355 46.775,16.663835 46.775,16.7638355 C46.775,16.863836 46.6583345,17.030501 46.425,17.2638355 L46.175,17.6388355 C45.7249977,18.3221723 45.3958344,18.7221683 45.1875,18.8388355 C44.9791656,18.9555028 44.8125006,19.0138355 44.6875,19.0138355 C44.5624994,19.0138355 44.3708346,18.9846692 44.1125,18.9263355 C43.8541654,18.8680019 43.7208334,18.8055025 43.7125,18.7388355 C43.7041666,18.6721685 43.7,18.6055025 43.7,18.5388355 C43.7,17.7221648 44.4416593,15.8805165 45.925,13.0138355 C45.524998,13.0638358 45.2208344,13.0888355 45.0125,13.0888355 C44.8041656,13.0888355 44.6291674,13.0263362 44.4875,12.9013355 C44.3458326,12.7763349 44.275,12.6138365 44.275,12.4138355 C44.275,12.2138345 44.4499983,12.030503 44.8,11.8638355 C45.1500018,11.697168 45.4208324,11.6138355 45.6125,11.6138355 C45.8041676,11.6138355 45.966666,11.6930014 46.1,11.8513355 C46.233334,12.0096697 46.3166665,12.0888355 46.35,12.0888355 L46.425,12.0888355 C46.7750018,11.455499 47.0916652,10.8721715 47.375,10.3388355 C47.6583347,9.80549955 47.8,9.45966967 47.8,9.30133555 C47.8,9.14300142 47.7750002,9.0221693 47.725,8.93883555 C47.8250005,8.4554998 48.2374964,7.8388393 48.9625,7.08883555 C49.6875036,6.3388318 50.349997,5.96383555 50.95,5.96383555 C51.216668,5.96383555 51.5416647,6.06800117 51.925,6.27633555 C52.3083352,6.48466992 52.4750002,6.75550055 52.425,7.08883555 C52.3083327,7.0055018 52.2000005,6.96383555 52.1,6.96383555 C50.966661,6.96383555 49.4083433,8.66381855 47.425,12.0638355 C47.9750028,12.0138353 48.549997,11.938836 49.15,11.8388355 C51.15001,11.5888343 52.283332,11.4638355 52.55,11.4638355 C52.816668,11.4638355 52.9874996,11.4680022 53.0625,11.4763355 C53.1375004,11.4846689 53.2041664,11.505502 53.2625,11.5388355 C53.3208336,11.572169 53.3583333,11.605502 53.375,11.6388355 C53.3916667,11.738836 53.200002,11.8555015 52.8,11.9888355 C51.8333285,12.3055038 49.8750147,12.6221673 46.925,12.9388355 C45.524993,15.4721815 44.825,17.0304993 44.825,17.6138355 C44.825,17.8971703 44.9458321,18.0013359 45.1875,17.9263355 C45.4291679,17.8513352 45.6416657,17.69717 45.825,17.4638355 C46.2583355,16.897166 46.5499992,16.6138355 46.7,16.6138355 Z M56.475,4.71383555 C56.9583358,4.18049955 57.4166645,3.91383555 57.85,3.91383555 C58.050001,3.91383555 58.2083327,3.96383505 58.325,4.06383555 C58.4416672,4.16383605 58.5,4.26383505 58.5,4.36383555 C58.5,4.46383605 58.4500005,4.56383505 58.35,4.66383555 C58.2499995,4.76383605 58.0583348,4.91800117 57.775,5.12633555 C57.4916652,5.33466992 57.2666675,5.52216805 57.1,5.68883555 C56.299996,6.4721728 55.9,7.14716605 55.9,7.71383555 C55.9,7.9638368 55.9541661,8.17216805 56.0625,8.33883555 C56.1708339,8.50550305 56.158334,8.60966867 56.025,8.65133555 C55.891666,8.69300242 55.7666672,8.6388363 55.65,8.48883555 C55.4999993,8.38883505 55.425,8.05550505 55.425,7.48883555 C55.425,6.7388318 55.558332,6.11383805 55.825,5.61383555 C55.8583335,5.5638353 55.9124996,5.47633617 55.9875,5.35133555 C56.0625004,5.22633492 56.1249998,5.1388358 56.175,5.08883555 L55.2375,5.08883555 C54.7291641,5.08883555 53.7208409,5.02216955 52.2125,4.88883555 C50.7041591,4.75550155 49.5666705,4.68883555 48.8,4.68883555 C48.0333295,4.68883555 47.4416687,4.73883505 47.025,4.83883555 C45.4416588,5.0555033 44.0791724,5.49299892 42.9375,6.15133555 C41.7958276,6.80967217 41.1166677,7.63883055 40.9,8.63883555 C40.8666665,8.73883605 40.85,8.85966817 40.85,9.00133555 C40.85,9.14300292 40.8958329,9.31383455 40.9875,9.51383555 C41.0791671,9.71383655 41.191666,9.8721683 41.325,9.98883555 C41.458334,10.1055028 41.6624986,10.247168 41.9375,10.4138355 C42.2125014,10.580503 42.3958329,10.7013352 42.4875,10.7763355 C42.5791671,10.8513359 42.5958336,10.9138353 42.5375,10.9638355 C42.4791664,11.0138358 42.4208336,11.0388355 42.3625,11.0388355 C42.3041664,11.0388355 42.241667,11.0305023 42.175,11.0138355 C41.6083305,10.847168 41.1291686,10.5346712 40.7375,10.0763355 C40.3458314,9.61799992 40.15,9.23467042 40.15,8.92633555 C40.15,8.61800067 40.1916662,8.3555033 40.275,8.13883555 C40.275,7.9555013 40.2833332,7.8221693 40.3,7.73883555 C40.5500012,6.5554963 41.308327,5.6388388 42.575,4.98883555 C44.0916742,4.2054983 45.9416557,3.81383555 48.125,3.81383555 C49.325006,3.81383555 50.7999912,3.9555008 52.55,4.23883555 C54.3000087,4.5221703 55.608329,4.68050205 56.475,4.71383555 Z M57.475,18.6888355 C56.6249957,18.6888355 56.2,18.1763407 56.2,17.1513355 C56.2,16.1263304 56.933326,14.863843 58.4,13.3638355 C58.5166672,13.2471683 58.5999997,13.1555025 58.65,13.0888355 L58.825,12.8388355 C59.0583345,12.5221673 59.1666667,12.3221693 59.15,12.2388355 L59.075,12.0138355 C59.008333,11.8138345 58.7333357,11.6680027 58.25,11.5763355 C57.7666642,11.4846684 57.3750015,11.4388355 57.075,11.4388355 C55.5749925,13.5555128 54.7083345,14.763834 54.475,15.0638355 C54.2416655,15.363837 54.0833337,15.4888358 54,15.4388355 C53.9166662,15.3888353 53.875,15.3305025 53.875,15.2638355 C53.875,15.1971685 53.9249995,15.0971695 54.025,14.9638355 C54.9250045,13.86383 55.6999967,12.6888418 56.35,11.4388355 C56.149999,11.405502 56.0000005,11.3346694 55.9,11.2263355 C55.7999995,11.1180017 55.7916662,10.9346702 55.875,10.6763355 C55.9583337,10.4180009 56.2124979,10.072171 56.6375,9.63883555 C57.0625021,9.20550005 57.4333317,8.9138363 57.75,8.76383555 C58.0666682,8.6138348 58.2666663,8.52216905 58.35,8.48883555 C58.4333338,8.45550205 58.5249995,8.43883555 58.625,8.43883555 C58.825001,8.43883555 58.758335,8.73883255 58.425,9.33883555 L57.45,10.8888355 C58.2000037,10.9388358 58.841664,10.9638355 59.375,10.9638355 L60.25,10.9388355 C60.5333347,10.9388355 60.741666,10.9763352 60.875,11.0513355 C61.008334,11.1263359 61.041667,11.2555013 60.975,11.4388355 C60.8583327,11.7555038 60.566669,12.1804995 60.1,12.7138355 C59.099995,13.880508 58.3500025,15.1221623 57.85,16.4388355 C57.7333328,16.7555038 57.675,17.030501 57.675,17.2638355 C57.675,17.7471713 57.8499982,17.9888355 58.2,17.9888355 C58.3166672,17.9888355 58.5374984,17.8971698 58.8625,17.7138355 C59.1875016,17.5305013 59.7333295,17.0930057 60.5,16.4013355 C61.2666705,15.7096654 61.883331,15.0305055 62.35,14.3638355 C62.416667,14.2805018 62.4958329,14.2596687 62.5875,14.3013355 C62.6791671,14.3430024 62.725,14.3846687 62.725,14.4263355 C62.725,14.4680024 62.7083335,14.5138353 62.675,14.5638355 C62.4249988,15.0138378 61.9750033,15.588832 61.325,16.2888355 C60.6749967,16.988839 60.0416697,17.5555 59.425,17.9888355 C58.824997,18.4555045 58.1750035,18.6888355 57.475,18.6888355 Z M67.825,10.7888355 C68.7250045,10.7888355 69.175,11.2221645 69.175,12.0888355 C69.175,12.5388378 69.0500012,12.9055008 68.8,13.1888355 C68.3833312,13.8055053 67.708338,14.3429999 66.775,14.8013355 C65.841662,15.2596712 65.0500033,15.5138353 64.4,15.5638355 C64.1666655,15.5805023 64.0416667,15.5138363 64.025,15.3638355 C64.0083332,15.2971685 64.0291664,15.2555023 64.0875,15.2388355 C64.1458336,15.2221688 64.1916665,15.2138355 64.225,15.2138355 C64.6083352,15.180502 65.099997,14.9971705 65.7,14.6638355 C66.8166722,14.0638325 67.6333307,13.447172 68.15,12.8138355 C68.3666678,12.513834 68.475,12.2263369 68.475,11.9513355 C68.475,11.6763342 68.341668,11.5388355 68.075,11.5388355 C67.8583322,11.5388355 67.5666685,11.6305013 67.2,11.8138355 C66.4166628,12.180504 65.591671,12.8179977 64.725,13.7263355 C63.858329,14.6346734 63.291668,15.5221645 63.025,16.3888355 C62.9416662,16.6555035 62.9,16.9180009 62.9,17.1763355 C62.9,17.4346702 63.0083322,17.680501 63.225,17.9138355 C63.4416677,18.14717 63.7749977,18.2638355 64.225,18.2638355 C64.7250025,18.2638355 65.2999967,18.1305035 65.95,17.8638355 C67.8333427,17.097165 69.2833282,15.9388433 70.3,14.3888355 C70.4000005,14.2555015 70.4916662,14.2305018 70.575,14.3138355 C70.641667,14.347169 70.675,14.3888353 70.675,14.4388355 C70.675,14.4888358 70.6500003,14.5471685 70.6,14.6138355 C70.0999975,15.447173 69.4666705,16.1888323 68.7,16.8388355 C67.2166592,18.1055085 65.775007,18.7388355 64.375,18.7388355 C63.174994,18.7388355 62.3333357,18.3805058 61.85,17.6638355 C61.6666657,17.3805008 61.575,17.0388375 61.575,16.6388355 C61.575,16.2388335 61.6833322,15.7638383 61.9,15.2138355 C62.3166687,14.2638308 63.2083265,13.2888405 64.575,12.2888355 C65.9416735,11.2888305 67.024996,10.7888355 67.825,10.7888355 Z M75.8,10.7888355 C76.7000045,10.7888355 77.15,11.2221645 77.15,12.0888355 C77.15,12.5388378 77.0250013,12.9055008 76.775,13.1888355 C76.3583312,13.8055053 75.683338,14.3429999 74.75,14.8013355 C73.816662,15.2596712 73.0250032,15.5138353 72.375,15.5638355 C72.1416655,15.5805023 72.0166667,15.5138363 72,15.3638355 C71.9833333,15.2971685 72.0041664,15.2555023 72.0625,15.2388355 C72.1208336,15.2221688 72.1666665,15.2138355 72.2,15.2138355 C72.5833353,15.180502 73.074997,14.9971705 73.675,14.6638355 C74.7916723,14.0638325 75.6083307,13.447172 76.125,12.8138355 C76.3416677,12.513834 76.45,12.2263369 76.45,11.9513355 C76.45,11.6763342 76.316668,11.5388355 76.05,11.5388355 C75.8333322,11.5388355 75.5416685,11.6305013 75.175,11.8138355 C74.3916627,12.180504 73.566671,12.8179977 72.7,13.7263355 C71.833329,14.6346734 71.266668,15.5221645 71,16.3888355 C70.9166662,16.6555035 70.875,16.9180009 70.875,17.1763355 C70.875,17.4346702 70.9833322,17.680501 71.2,17.9138355 C71.4166678,18.14717 71.7499978,18.2638355 72.2,18.2638355 C72.7000025,18.2638355 73.2749967,18.1305035 73.925,17.8638355 C75.8083428,17.097165 77.2583283,15.9388433 78.275,14.3888355 C78.3750005,14.2555015 78.4666663,14.2305018 78.55,14.3138355 C78.616667,14.347169 78.65,14.3888353 78.65,14.4388355 C78.65,14.4888358 78.6250002,14.5471685 78.575,14.6138355 C78.0749975,15.447173 77.4416705,16.1888323 76.675,16.8388355 C75.1916593,18.1055085 73.750007,18.7388355 72.35,18.7388355 C71.149994,18.7388355 70.3083357,18.3805058 69.825,17.6638355 C69.6416658,17.3805008 69.55,17.0388375 69.55,16.6388355 C69.55,16.2388335 69.6583323,15.7638383 69.875,15.2138355 C70.2916687,14.2638308 71.1833265,13.2888405 72.55,12.2888355 C73.9166735,11.2888305 74.999996,10.7888355 75.8,10.7888355 Z" id="Type" fill="#52CC17" mask="url(#mask-2)" transform="translate(59.400000, 11.413836) rotate(-10.000000) translate(-59.400000, -11.413836) "></path>
                </g>
                <g id="VanHack-logo">
                    <g>
                        <path d="M66.8050314,12.1306509 C68.7949686,12.1306509 70.8104906,12.1306509 72.8117987,12.096568 C73.4030943,12.096568 73.6333585,12.2897041 73.7953962,12.8321893 C75.7588008,19.3685207 77.7364193,25.9010651 79.7282516,32.4298225 C79.8391195,32.7990533 79.9642013,33.1626036 80.1518239,33.7363314 C80.7601761,32.0776331 81.3059874,30.612071 81.8404277,29.1209467 C83.7810901,23.7377515 85.7151195,18.351716 87.6425157,12.9628402 C87.8642516,12.3436686 88.1371572,12.0710059 88.8393208,12.1107692 C90.4198994,12.1704142 92.0061635,12.1618935 93.5895849,12.1107692 C94.3542893,12.0880473 94.4793711,12.2499408 94.1894088,12.9798817 C91.878239,18.7966864 89.6068679,24.6248521 87.3241258,30.4586982 C86.3774843,32.8728994 85.4194717,35.2871006 84.5041006,37.7098225 C84.2653082,38.3460355 83.9725031,38.6442604 83.2248553,38.6215385 C81.0757233,38.5618935 78.9209057,38.5704142 76.7717736,38.6215385 C76.0752956,38.6357396 75.7995472,38.3914793 75.5834969,37.752426 C72.7824235,29.5138462 69.9633459,21.2771598 67.1262642,13.0423669 C67.0409811,12.792426 66.9130566,12.5566864 66.8050314,12.3152663 L66.8050314,12.1363314 L66.8050314,12.1306509 Z M225.701509,35.2473373 C225.286465,36.1533728 225.283623,37.1417751 225.158541,38.087574 C225.070415,38.7550296 224.874264,39.036213 224.115245,38.9936095 C220.703925,38.8061538 217.957811,37.5138462 215.970717,34.667929 C214.96722,33.2307692 213.838642,31.8816568 212.604881,30.2797633 L212.604881,31.4442604 C212.604881,33.5659172 212.584981,35.6847337 212.604881,37.8063905 C212.604881,38.3744379 212.457057,38.5988166 211.860075,38.5846154 C210.248226,38.5533728 208.630692,38.556213 207.027371,38.5846154 C206.501459,38.5846154 206.299623,38.459645 206.299623,37.8887574 C206.314784,28.9306509 206.314784,19.9715976 206.299623,11.0115976 C206.299623,10.4435503 206.458818,10.2986982 207.007472,10.3100592 C208.619321,10.344142 210.236855,10.355503 211.840176,10.3100592 C212.511069,10.2901775 212.607723,10.5486391 212.604881,11.1337278 C212.582138,15.6127811 212.604881,20.0918343 212.604881,24.5708876 L212.604881,25.7069822 C213.540151,24.4657988 214.310541,23.4347929 215.097987,22.3981065 C216.02852,21.1559763 216.958105,19.9119527 217.886742,18.6660355 C218.062994,18.4302959 218.210818,18.1689941 218.577535,18.1718343 L225.01356,18.1718343 L221.13034,23.0542012 C220.087044,24.3607101 219.055119,25.6785799 218.003296,26.9680473 C217.670692,27.3742012 217.585409,27.6553846 218.003296,28.104142 C219.109132,29.2771598 220.15527,30.5069822 221.232679,31.7055621 C222.449384,33.060355 224.029962,33.8073373 225.721409,34.3640237 L225.721409,35.2586982 L225.701509,35.2473373 Z M138.408654,25.3008284 C138.408654,21.179645 138.425711,17.064142 138.39444,12.9372781 C138.39444,12.2584615 138.584906,12.0852071 139.24727,12.0852071 C140.859119,12.1334911 142.473811,12.1249704 144.079975,12.0852071 C144.67127,12.0852071 144.838994,12.2556213 144.833308,12.8407101 C144.807723,15.8570414 144.853208,18.8733728 144.799195,21.8897041 C144.784981,22.7105325 145.043673,22.872426 145.808377,22.8610651 C148.935421,22.8184615 152.085208,22.824142 155.223623,22.8610651 C155.914415,22.8610651 156.141836,22.7020118 156.130465,21.9777515 C156.087824,18.9614201 156.130465,15.9450888 156.096352,12.9287574 C156.096352,12.2499408 156.281132,12.0766864 156.949182,12.0766864 C158.592302,12.1249704 160.235421,12.107929 161.878541,12.0766864 C162.367497,12.0766864 162.552277,12.1902959 162.552277,12.7185799 C162.537115,21.1086391 162.537115,29.499645 162.552277,37.8915976 C162.552277,38.4852071 162.31917,38.5760947 161.813157,38.5704142 C160.170038,38.5476923 158.526918,38.5363314 156.880956,38.5704142 C156.224277,38.5874556 156.090667,38.3289941 156.096352,37.7183432 C156.121937,34.6423669 156.096352,31.5663905 156.121937,28.4904142 C156.121937,27.8314793 155.965585,27.6383432 155.269107,27.6383432 C152.047304,27.676213 148.819816,27.676213 145.586642,27.6383432 C144.949862,27.6383432 144.784981,27.8343195 144.790667,28.4506509 C144.819094,31.4982249 144.770767,34.5429586 144.82478,37.5876923 C144.838994,38.4113609 144.577459,38.5902959 143.812755,38.5590533 C142.320302,38.4994083 140.822164,38.4908876 139.329711,38.5590533 C138.476881,38.6016568 138.354642,38.2750296 138.36317,37.5280473 C138.39444,33.4352663 138.377384,29.3453254 138.377384,25.2553846 L138.408654,25.3008284 Z M122.838818,20.0179882 C123.518239,19.6260355 124.172075,19.2312426 124.828755,18.8648521 C126.908231,17.6995401 129.336925,17.3176232 131.674138,17.7884024 C134.573761,18.3394083 135.907019,19.9185799 136.191296,22.8639053 C136.415874,25.1872189 136.313535,27.516213 136.333434,29.8423669 C136.353333,32.4667456 136.316377,35.0968047 136.353333,37.7211834 C136.353333,38.3659172 136.216881,38.6243787 135.51756,38.6016568 C133.965409,38.5533728 132.410415,38.5590533 130.858264,38.6016568 C130.235698,38.6186982 130.048075,38.4340828 130.050918,37.8035503 C130.079346,34.0430769 130.050918,30.2826036 130.065132,26.5221302 C130.081207,25.8957262 130.031662,25.2693602 129.917308,24.6532544 C129.689887,23.579645 129.195245,23.1337278 128.080881,23.0513609 C126.557405,22.9513933 125.02993,23.1730041 123.597836,23.7017751 C122.949686,23.9289941 122.685308,24.2272189 122.693836,24.9713609 C122.739321,29.2089941 122.693836,33.4466272 122.730792,37.6871006 C122.730792,38.3687574 122.580126,38.6300592 121.849535,38.6073373 C120.297384,38.556213 118.74239,38.5732544 117.190239,38.6073373 C116.641585,38.6073373 116.408478,38.5050888 116.408478,37.871716 C116.433115,31.5152663 116.433115,25.1578698 116.408478,18.7995266 C116.408478,18.2314793 116.596101,18.0894675 117.130541,18.0979882 C118.682692,18.1263905 120.237686,18.1491124 121.789836,18.0979882 C122.54317,18.0695858 122.813233,18.2968047 122.725107,19.0409467 C122.646504,19.3738755 122.680492,19.7234407 122.821761,20.0350296 L122.838818,20.0179882 Z M198.260277,17.6861538 C200.205331,17.5773624 202.149648,17.9124584 203.945811,18.6660355 C204.514365,18.9017751 204.645132,19.1602367 204.403497,19.7453254 C203.979925,20.7621302 203.621736,21.8073373 203.289132,22.8695858 C203.112881,23.4376331 202.871245,23.5398817 202.319748,23.3268639 C200.881109,22.806627 199.347617,22.6003418 197.822491,22.7218935 C195.360654,22.8440237 193.77439,24.2982249 193.387774,26.712426 C193.200719,27.9531373 193.211273,29.2156013 193.419044,30.4530178 C193.72322,32.4071006 194.885912,33.492071 196.929862,33.8357396 C198.883485,34.1196429 200.872835,34.039716 202.797333,33.6 C203.4,33.4778698 203.573409,33.6 203.650164,34.1992899 C203.803673,35.3211834 204.008352,36.4345562 204.255673,37.5394083 C204.372226,38.0563314 204.301157,38.2523077 203.743975,38.3914793 C200.396958,39.2199484 196.900619,39.2403937 193.544126,38.4511243 C189.601208,37.5337278 187.403748,34.932071 186.951748,30.8563314 C186.730013,28.8681657 186.667472,26.88 187.236025,24.9088757 C188.373132,20.8047337 191.912377,18.0184615 196.386893,17.7088757 C197.012302,17.6662722 197.640553,17.7088757 198.265962,17.7088757 L198.260277,17.6861538 Z M112.857862,28.1552663 C112.857862,29.6179882 112.909031,31.0835503 112.837962,32.5462722 C112.795321,33.4579882 113.139296,33.9294675 114.014868,33.9493491 C114.583421,33.9493491 114.702818,34.1964497 114.665862,34.7105325 C114.580579,35.8693491 114.535094,37.0338462 114.48961,38.1983432 C114.48961,38.5022485 114.424226,38.7181065 114.057509,38.7294675 C112.141484,38.7919527 110.225459,38.8175148 108.457258,37.9057988 C108.151681,37.7801414 107.891126,37.5653498 107.70961,37.2894675 C107.345736,36.5112426 106.981862,36.8179882 106.495748,37.1531361 C104.132066,38.8706675 101.092619,39.3650207 98.3057358,38.4852071 C95.8524277,37.763787 94.4992704,36 94.345761,33.4352663 C94.1666667,30.444497 95.1985912,28.5443787 97.6263145,27.4707692 C99.2125786,26.7493491 100.918239,26.5590533 102.623899,26.4994083 C103.789434,26.4568047 104.954969,26.4681657 106.120503,26.4994083 C106.586717,26.4994083 106.726013,26.3488757 106.745912,25.8830769 C106.811296,23.9971598 106.228528,23.2899408 104.32956,23.0059172 C102.032604,22.6849704 99.806717,23.1763314 97.5922013,23.6563314 C96.9810063,23.7898225 96.7393711,23.7131361 96.605761,23.088284 C96.3527547,21.9862722 96.0372075,20.8984615 95.7102893,19.8106509 C95.5908931,19.4101775 95.6818616,19.2198817 96.0826918,19.0750296 C100.162063,17.5810651 104.326717,17.1294675 108.590868,18.1405917 C111.433635,18.8222485 112.775421,20.6257988 112.855019,23.5711243 C112.891975,25.0934911 112.855019,26.615858 112.855019,28.1410651 L112.857862,28.1552663 Z M106.72317,30.6745562 C106.72317,30.407574 106.657786,30.180355 106.336553,30.2002367 C104.829887,30.2911243 103.289107,30.024142 101.816553,30.5410651 C100.804528,30.8960947 100.346843,31.6118343 100.460553,32.5775148 C100.551522,33.3671006 101.225258,33.9209467 102.245811,34.0231953 C103.228914,34.088162 104.216037,33.9922238 105.168176,33.7391716 C106.726013,33.3784615 106.726013,33.3813018 106.72317,31.8248521 C106.72317,31.4357396 106.720327,31.0494675 106.72317,30.6745562 Z M183.588755,27.9394083 C183.588755,29.4617751 183.637082,30.9869822 183.571698,32.5036686 C183.529057,33.4551479 183.907145,33.923787 184.819673,33.9521893 C185.410969,33.9521893 185.470667,34.1907692 185.425182,34.7218935 C185.325686,35.8182249 185.314314,36.9259172 185.285887,38.0307692 C185.285887,38.4937278 185.106792,38.7436686 184.603623,38.7550296 C183.017358,38.7862722 181.439623,38.7550296 179.915899,38.2381065 C179.313233,38.0392899 178.702038,37.7495858 178.403547,37.1815385 C178.065258,36.5368047 177.772453,36.792426 177.388679,37.0650888 C174.867145,38.8430769 172.112503,39.3571598 169.144654,38.4852071 C166.645862,37.7609467 165.252906,35.9943195 165.085182,33.4125444 C164.880503,30.4785799 166.01761,28.487574 168.473761,27.4224852 C170.205006,26.675503 172.047119,26.5221302 173.906289,26.4908876 C174.861459,26.4738462 175.819472,26.4539645 176.774642,26.4908876 C177.343195,26.5192899 177.462591,26.303432 177.468277,25.7751479 C177.468277,23.8636686 177.016277,23.2785799 175.094566,23.0059172 C172.803296,22.6792899 170.577409,23.1791716 168.362893,23.6534911 C167.765912,23.7813018 167.510063,23.7273373 167.37361,23.0854438 C167.13766,22.0118343 166.805057,20.9552663 166.503723,19.895858 C166.375799,19.4613018 166.401384,19.2340828 166.915925,19.043787 C170.764273,17.588816 174.943082,17.2376128 178.980629,18.0298225 C182.005333,18.6319527 183.494943,20.4411834 183.571698,23.5342012 C183.608654,24.9969231 183.571698,26.459645 183.571698,27.9223669 L183.588755,27.9223669 L183.588755,27.9394083 Z M172.689585,30.4728994 C171.640604,30.8194083 171.074893,31.5919527 171.182918,32.5207101 C171.282415,33.3727811 172.015849,33.9408284 173.124528,34.0231953 C174.233208,34.1055621 175.310616,33.8471006 176.396553,33.648284 C177.189686,33.503432 177.519447,33.2137278 177.482491,32.3218935 C177.397208,30.1831953 177.456906,30.1831953 174.966642,30.2201183 C174.199905,30.1818919 173.432008,30.2672443 172.692428,30.4728994 L172.689585,30.4728994 Z" id="VanHack" fill="#51ABE4" fill-rule="nonzero"></path>
                        <g id="icon" transform="translate(0.000000, 0.000000)" fill-rule="nonzero">
                            <path d="M4.65645283,11.9062722 L12.5366038,27.3287574 C12.8208805,26.3545562 13.071044,25.5820118 13.2984654,24.803787 C15.6617526,16.7886391 18.0184067,8.77633136 20.3684277,0.766863905 C20.547522,0.150532544 20.8033711,0 21.4174088,0 C24.8287296,0.0312426036 28.2571069,0.0142011834 31.676956,0.0142011834 L32.4843019,0.0142011834 C31.8731069,2.09609467 31.2874969,4.10130178 30.6962013,6.10366864 C26.6822138,19.7046154 22.6739119,33.3065089 18.6712956,46.9093491 C18.4580881,47.6392899 18.1738113,47.8608284 17.4176352,47.8466272 C14.5379119,47.795503 11.6553459,47.8125444 8.77277987,47.8466272 C8.34512143,47.9018677 7.93966554,47.641792 7.81192453,47.2302959 C5.36524948,41.76 2.90151782,36.2963314 0.42072956,30.8392899 C0.273465331,30.5560763 0.234071053,30.2290921 0.309861635,29.9190533 C1.76251572,23.9857988 3.1810566,18.0582249 4.65645283,11.9062722" id="path18" fill="#51ABE4"></path>
                            <path d="M58.8623396,0.0937278107 C58.3222138,1.94272189 57.7906164,3.7860355 57.244805,5.64071006 C53.1682767,19.4423669 49.0936436,33.2449704 45.0209057,47.0485207 C44.8474969,47.6421302 44.6143899,47.8409467 43.9832956,47.8352663 C40.4554214,47.8011834 36.9275472,47.8182249 33.399673,47.8182249 C33.2689057,47.8182249 33.1352956,47.7983432 32.9135597,47.784142 C33.4309434,46.0231953 33.936956,44.3048521 34.4429686,42.5865089 C35.5942893,38.6726627 36.734239,34.7531361 37.9139874,30.8478107 C38.1158239,30.1831953 37.9992704,30.0156213 37.308478,30.0213018 C34.266717,30.0497041 31.2221132,30.0213018 28.1803522,30.0213018 C27.1143145,30.0213018 27.1057862,30.0213018 27.3872201,28.9590533 C28.2400503,25.7694675 29.1070943,22.5827219 29.9457107,19.3874556 C30.0935346,18.8194083 30.3380126,18.6092308 30.9321509,18.6177515 C34.1615346,18.6688757 37.3909182,18.660355 40.6203019,18.7285207 C41.3281509,18.7427219 41.584,18.4871006 41.7574088,17.8452071 C43.4232704,12.0937278 45.1232453,6.35360947 46.8118491,0.610650888 C46.9141887,0.264142012 47.0051572,-0.00284023669 47.4912704,9.71214076e-15 C51.2152956,0.0284023669 54.9307925,0.0227218935 58.6462893,0.0284023669 C58.7204325,0.0424139505 58.7928618,0.0643138237 58.8623396,0.0937278107" id="path20" fill="#6AC0EB"></path>
                        </g>
                    </g>
                </g>
            </g>
        </g>
    </g>
</svg>